# xmcd
#
# Track frame offsets:
#	187
#	16000
#	27550
#	40395
#	51520
#	61007
#	71247
#	81547
#	94800
#	106115
#	123040
#	136020
#	147060
#	156885
#	168695
#	180847
#	192865
#	205590
#	217787
#	228717
#	242305
#	253705
#
# Disc length: 3654 seconds
#
# Revision: 0
# Processed by: cddbd v1.5.2PL0 Copyright (c) Steve Scherf et al.
# Submitted via: audiograbber 1.83.01
#
DISCID=260e4416
DTITLE=Patsy Cline - The Patsy Cline Collection  [CD4)  Sweet Dreams
DYEAR=1900
DGENRE=Oldies
TTITLE0=Why Can't He Be You
TTITLE1=Your Kinda Love
TTITLE2=When You Need A Laugh
TTITLE3=Leavin' On Your Mind
TTITLE4=Back In Baby's Arms
TTITLE5=Tra Le La Le La Triangle
TTITLE6=That's How A Heartache Begins
TTITLE7=Leavin' On Your Mind  (Radio Transcription)
TTITLE8=Tennessee Waltz  (Radio Transcription)
TTITLE9=Faded Love
TTITLE10=Someday (You'll Want Me To Love You)
TTITLE11=Love Letters In The Sand
TTITLE12=Blue Moon Of Kentucky
TTITLE13=Sweet Dreams (Of You)
TTITLE14=Always
TTITLE15=Does Your Heart Beat For Me
TTITLE16=Bill Bailey, Won't You Please Come Home
TTITLE17=He Called Me Baby
TTITLE18=Crazy Arms
TTITLE19=You Took Him Off My Hands
TTITLE20=I'll Sail My Ship Alone
TTITLE21=Just A Closer Walk With Thee
EXTD=
EXTT0=
EXTT1=
EXTT2=
EXTT3=
EXTT4=
EXTT5=
EXTT6=
EXTT7=
EXTT8=
EXTT9=
EXTT10=
EXTT11=
EXTT12=
EXTT13=
EXTT14=
EXTT15=
EXTT16=
EXTT17=
EXTT18=
EXTT19=
EXTT20=
EXTT21=
PLAYORDER=
